<?xml version="1.0" encoding="UTF-8"?>
<svg width="1082px" height="240px" viewBox="0 0 1082 240" version="1.1" xmlns="http://www.w3.org/2000/svg" xmlns:xlink="http://www.w3.org/1999/xlink">
    <title>logo-gs-fine</title>
    <g id="logo-gs-fine" stroke="none" stroke-width="1" fill="none" fill-rule="evenodd">
        <g id="Group">
            <circle id="Oval" fill="#11B866" cx="120" cy="120" r="120"></circle>
            <path d="M54.5967837,141.026213 C41.6886162,141.460431 28.0469643,144.728934 11,158.592506 C35.545391,157.291068 62.1175855,161.38984 74.5413124,167.580368 C86.9650392,173.770897 101.543294,181.081786 117,206 C115.060599,183.458092 91.7206621,139.777403 54.5967837,141.026213 Z" id="Path-Copy-2" fill="#FFFFFF"></path>
            <path d="M166.596784,141.026213 C153.688616,141.460431 140.046964,144.728934 123,158.592506 C147.545391,157.291068 174.117585,161.38984 186.541312,167.580368 C198.965039,173.770897 213.543294,181.081786 229,206 C227.060599,183.458092 203.720662,139.777403 166.596784,141.026213 Z" id="Path-Copy-3" fill="#FFFFFF" transform="translate(176.000000, 173.500000) scale(-1, 1) translate(-176.000000, -173.500000) "></path>
            <path d="M120.000447,54.0001702 C126.576016,62.5835754 131,78.6260266 131,97 C131,115.37396 126.576022,131.416401 120.000461,139.999811 C113.423978,131.416401 109,115.37396 109,97 C109,78.6310903 113.421546,62.5924179 119.994117,54.0072684 Z" id="Combined-Shape" fill="#FFFFFF"></path>
            <path d="M162.960271,118 C175.430232,118 179.839515,119.214491 189,122.316995 C173.112684,126.284689 156.695121,135.633401 149.922579,140.308653 C143.220367,144.935354 127.67318,158.65621 120.199298,187.099707 C120.14694,187.400927 120.091387,187.700903 120.033299,188 C120.022247,187.956485 120.011177,187.913003 120.000087,187.869556 L119.966701,188 L119.966701,188 C119.908613,187.700903 119.85306,187.400927 119.800064,187.100093 C112.32682,158.65621 96.7796332,144.935354 90.0774214,140.308653 C83.3048793,135.633401 66.8873158,126.284689 51,122.316995 C60.1604848,119.214491 64.569768,118 77.0397294,118 C101.435695,118 116.175728,139.034197 120.001122,164.402481 C123.824272,139.034197 138.564305,118 162.960271,118 Z" id="Combined-Shape" fill="#FFFFFF"></path>
            <path d="M120,10.0763359 C59.2908367,10.0763359 10.0763359,59.2908367 10.0763359,120 C10.0763359,180.709163 59.2908367,229.923664 120,229.923664 C180.709163,229.923664 229.923664,180.709163 229.923664,120 C229.923664,59.2908367 180.709163,10.0763359 120,10.0763359 Z M120,17.4045802 C176.661886,17.4045802 222.59542,63.3381142 222.59542,120 C222.59542,176.661886 176.661886,222.59542 120,222.59542 C63.3381142,222.59542 17.4045802,176.661886 17.4045802,120 C17.4045802,63.3381142 63.3381142,17.4045802 120,17.4045802 Z" id="Oval" fill="#FFFFFF" fill-rule="nonzero"></path>
        </g>
        <path d="M325.632,119.056 C330.168,119.056 332.472,116.68 332.472,112.072 L332.472,84.28 L348.096,84.28 L348.096,77.656 L339.456,77.656 L342.912,59.872 L342.912,56.848 L324.12,56.848 L325.128,53.104 L318.144,52.384 L312.312,73.984 L333.192,73.984 L332.4,77.656 L309.576,77.656 L309.576,84.28 L325.416,84.28 L325.416,110.272 C325.416,111.856 324.696,112.72 323.256,112.72 C321.528,112.72 319.728,112.576 317.712,112.288 L319.296,119.056 L325.632,119.056 Z M285.384,97.528 C291.216,96.88 297.408,95.584 303.96,93.712 C304.248,94.72 304.608,95.872 304.896,97.024 L310.8,94.504 C309.288,89.608 307.488,84.928 305.4,80.608 L300.072,82.768 C300.792,84.496 301.512,86.368 302.232,88.384 C299.352,89.104 296.472,89.68 293.592,90.184 C297.624,85.216 302.736,77.224 308.784,66.28 L302.52,63.76 L298.416,71.536 C296.04,71.968 293.592,72.256 291.144,72.544 C294.384,68.08 297.552,62.32 300.72,55.408 L293.808,52.672 C291.576,59.08 288.912,64.984 285.816,70.384 C284.952,71.752 283.944,72.688 282.792,73.12 L284.592,79.672 C288.048,79.096 291.432,78.592 294.672,78.016 C291.504,83.344 288.84,87.016 286.752,89.104 C285.888,89.896 284.808,90.544 283.584,91.048 L285.384,97.528 Z M334.488,68.08 L320.952,68.08 L322.392,62.896 L335.64,62.896 L334.488,68.08 Z M337.8,97.312 C341.4,95.8 344.64,93.496 347.376,90.328 L342.48,86.224 C340.176,89.104 337.512,91.192 334.416,92.632 L337.8,97.312 Z M319.944,97.6 L323.256,92.56 C320.448,90.256 317.352,88.312 313.896,86.728 L310.368,91.912 C313.608,93.28 316.776,95.152 319.944,97.6 Z M312.384,114.304 C316.776,111.496 320.52,107.896 323.688,103.432 L321.456,98.392 C318.288,102.064 314.544,105.016 310.368,107.248 C309.36,103.864 308.136,100.624 306.84,97.6 L301.8,99.688 C302.952,103.216 304.104,107.32 305.112,112 L309.792,109.984 L312.384,114.304 Z M346.512,114.52 L350.256,108.76 C346.224,104.656 341.76,101.128 336.864,98.248 L333.768,102.856 C338.088,105.736 342.336,109.624 346.512,114.52 Z M294.6,116.176 L301.08,115.312 C300.792,108.832 300.216,103.72 299.424,99.976 L293.736,100.696 C294.168,104.296 294.456,109.48 294.6,116.176 Z M289.56,118.552 C290.568,113.512 291.288,107.752 291.576,101.272 L285.6,100.48 C285.24,106.528 284.376,111.856 282.936,116.464 L289.56,118.552 Z M376.248,69.88 L381.36,64.84 C377.832,61.24 373.512,57.568 368.472,53.896 L363.432,58.72 C368.976,62.752 373.224,66.424 376.248,69.88 Z M382.008,119.632 C387.264,109.552 390,96.304 390.288,79.744 L390.288,61.744 L404.976,61.744 C404.616,63.4 404.112,65.056 403.536,66.784 L393.816,66.784 L393.816,93.496 L405.408,93.496 L405.408,110.344 C405.408,112.072 404.688,112.936 403.392,112.936 C401.664,112.936 399.936,112.792 398.208,112.504 L399.792,119.272 L405.84,119.272 C410.304,119.272 412.536,116.896 412.536,112.144 L412.536,93.496 L423.84,93.496 L423.84,66.784 L410.592,66.784 C411.168,65.128 411.6,63.472 412.032,61.744 L427.368,61.744 L427.368,55.12 L383.088,55.12 L383.088,79.744 C382.872,94.576 380.64,106.24 376.32,114.592 L382.008,119.632 Z M374.088,87.16 L379.128,82.048 C375.888,78.592 371.928,75.064 367.176,71.536 L362.136,76.36 C367.32,80.248 371.352,83.848 374.088,87.16 Z M417.288,77.44 L400.368,77.44 L400.368,72.544 L417.288,72.544 L417.288,77.44 Z M417.288,87.592 L400.368,87.592 L400.368,82.84 L417.288,82.84 L417.288,87.592 Z M369.768,119.344 C373.512,111.424 376.968,102.928 379.992,93.856 L373.512,91.264 C370.488,99.76 366.96,108.04 362.784,116.248 L369.768,119.344 Z M422.256,115.744 L428.592,112.936 C426.576,107.32 424.272,102.064 421.608,97.168 L415.416,99.328 C417.864,104.08 420.168,109.552 422.256,115.744 Z M394.032,115.816 C397.2,111.064 399.576,105.52 401.304,99.04 L394.68,97.6 C393.384,102.712 391.152,107.536 387.984,112 L394.032,115.816 Z M451.56,119.56 L451.56,117.04 L497.64,117.04 L497.64,119.56 L504.84,119.56 L504.84,55.12 L444.36,55.12 L444.36,119.56 L451.56,119.56 Z M465.096,110.272 L451.56,110.272 L451.56,61.888 L497.64,61.888 L497.64,110.272 L467.04,110.272 C471.144,109.48 475.248,108.544 479.352,107.464 L478.272,102.352 C475.824,103.072 473.448,103.72 471,104.296 L471,98.104 C472.44,96.952 473.664,95.8 474.744,94.648 L490.008,94.648 C488.28,95.8 486.264,97.024 484.104,98.176 C482.088,97.24 480,96.376 477.84,95.656 L474.816,100.048 C480.792,102.352 486.624,105.52 492.312,109.552 L495.768,104.224 C493.752,103 491.736,101.848 489.576,100.768 C491.592,99.688 493.608,98.536 495.624,97.24 L491.232,93.784 C491.16,93.784 491.088,93.856 491.016,93.928 L491.016,81.904 L458.184,81.904 L458.184,94.648 L467.4,94.648 C464.304,96.52 459.552,98.248 453.072,99.832 L456.456,105.376 C459.624,104.224 462.504,103.072 465.096,101.776 L465.096,103.648 C465.096,104.656 464.52,105.376 463.368,105.808 L465.096,110.272 Z M495.408,79.6 L495.408,74.128 L477.984,74.128 L477.984,71.464 L491.88,71.464 L491.88,66.136 L477.984,66.136 L477.984,63.328 L471.216,63.328 L471.216,66.136 L457.32,66.136 L457.32,71.464 L471.216,71.464 L471.216,74.128 L454.008,74.128 L454.008,79.6 L495.408,79.6 Z M484.824,89.896 L464.304,89.896 L464.304,86.8 L484.824,86.8 L484.824,89.896 Z M544.368,63.904 L544.368,61.816 L552.144,61.816 L552.144,56.056 L544.368,56.056 L544.368,52.888 L537.384,52.888 L537.384,56.056 L522.624,56.056 L522.624,61.816 L537.384,61.816 L537.384,63.904 L544.368,63.904 Z M570.288,63.904 L570.288,61.816 L584.904,61.816 L584.904,56.056 L570.288,56.056 L570.288,52.888 L563.304,52.888 L563.304,56.056 L555.456,56.056 L555.456,61.816 L563.304,61.816 L563.304,63.904 L570.288,63.904 Z M523.704,95.512 C534.504,95.224 544.08,94.792 552.504,94.36 L552.504,90.112 C549.192,90.256 545.664,90.328 541.92,90.472 L541.92,88.384 L549.984,88.384 L549.984,84.496 L541.92,84.496 L541.92,80.968 L536.016,80.968 L536.016,84.496 L528.096,84.496 C531.696,82.624 534.288,80.392 535.8,77.656 L542.784,77.656 L542.784,80.68 C542.784,82.12 544.152,82.912 547.032,82.912 L554.16,82.912 L554.16,79.744 L548.76,79.744 C547.896,79.744 547.536,79.384 547.536,78.664 L547.536,77.656 L554.664,77.656 L554.664,73.408 L542.136,73.408 L542.136,71.392 L552.072,71.392 L552.072,66.784 L542.136,66.784 L542.136,64.696 L535.8,64.696 L535.8,66.784 L525.72,66.784 L525.72,71.392 L535.8,71.392 L535.8,73.408 L523.2,73.408 L523.2,77.656 L530.832,77.656 C529.248,79.312 526.512,80.68 522.552,81.832 L524.712,85.936 C525.792,85.504 526.8,85.072 527.808,84.64 L527.808,88.384 L536.016,88.384 L536.016,90.616 L523.128,90.904 L523.704,95.512 Z M580.944,96.304 C582.456,96.16 583.68,95.44 584.616,94.216 C585.768,92.632 586.704,89.608 587.424,85 L582.384,82.768 C582.24,84.856 582.024,86.44 581.736,87.448 C581.448,88.456 581.016,89.032 580.44,89.176 C580.152,89.104 579.864,88.456 579.648,87.232 C579.36,85.936 579.288,84.136 579.288,81.832 C579.288,77.656 579.576,73.192 580.224,68.44 L569.208,68.44 L569.208,64.912 L563.16,64.912 L563.16,68.44 L555.816,68.44 L555.816,74.056 L563.088,74.056 C562.944,76.36 562.584,78.448 562.008,80.464 C560.64,79.672 559.272,79.024 557.904,78.448 L554.592,82.192 C556.464,83.128 558.264,84.208 559.992,85.36 C558.552,87.952 556.464,90.184 553.728,91.984 L558.408,96.16 C561,94.288 563.232,91.912 564.96,89.032 C566.256,90.04 567.552,91.192 568.776,92.416 L573.024,88.168 C571.152,86.512 569.28,85 567.408,83.704 C568.344,80.824 568.92,77.656 569.136,74.056 L573.888,74.056 C573.6,77.08 573.528,79.672 573.528,81.832 C573.528,85.072 573.816,87.952 574.464,90.4 C575.112,92.416 575.976,93.928 577.056,94.792 C578.28,95.8 579.576,96.304 580.944,96.304 Z M579.144,101.992 L579.144,97.312 L528.456,97.312 L528.456,101.992 L579.144,101.992 Z M578.496,119.848 L582.816,115.456 C579.792,113.368 576.192,111.28 572.088,109.192 L585.84,109.192 L585.84,104.152 L521.616,104.152 L521.616,109.192 L537.744,109.192 C535.152,110.776 532.992,112 531.12,113.008 C530.4,113.368 529.392,113.584 528.168,113.728 L529.464,119.128 C547.608,118.264 562.296,117.328 573.672,116.248 C575.472,117.4 577.056,118.624 578.496,119.848 Z M538.392,113.8 C540.696,112.648 543.36,111.064 546.24,109.192 L565.104,109.192 L563.952,110.344 C565.032,110.92 566.112,111.496 567.192,112.144 C558.984,112.72 549.336,113.296 538.392,113.8 Z M615.072,119.632 C618.96,115.456 621.552,110.416 622.704,104.44 L649.56,104.44 L649.56,109.84 C649.56,111.712 648.696,112.648 646.968,112.648 C644.808,112.648 642.504,112.504 640.056,112.288 L641.856,119.056 L649.128,119.056 C654.168,119.056 656.688,116.824 656.688,112.36 L656.688,73.624 L624.072,73.624 C625.296,71.608 626.448,69.448 627.6,67.288 L665.184,67.288 L665.184,60.016 L630.84,60.016 C631.632,57.856 632.352,55.624 633.072,53.32 L625.368,52.384 C624.576,54.976 623.64,57.496 622.56,60.016 L601.608,60.016 L601.608,67.288 L618.96,67.288 C614.208,75.496 607.8,82.84 599.664,89.248 L604.56,95.656 C608.88,92.128 612.84,88.312 616.44,84.136 L616.44,97.672 C616.296,104.584 614.064,110.2 609.672,114.664 L615.072,119.632 Z M649.56,85.936 L623.424,85.936 L623.424,80.104 L649.56,80.104 L649.56,85.936 Z M649.56,97.96 L623.352,97.96 C623.352,97.672 623.424,97.456 623.424,97.168 L623.424,92.344 L649.56,92.344 L649.56,97.96 Z M707.16,118.48 C715.224,116.464 721.92,114.304 727.248,112.072 L725.448,105.088 C721.848,106.816 718.248,108.184 714.576,109.336 L714.576,87.736 L740.136,87.736 L740.136,55.048 L707.16,55.048 L707.16,109.768 C707.16,110.776 706.512,111.424 705.36,111.856 L707.16,118.48 Z M688.584,119.56 L688.584,62.176 L697.584,62.176 C695.784,67.864 693.264,74.272 690.096,81.4 C694.92,87.376 697.368,92.776 697.368,97.6 C697.368,98.752 697.08,99.544 696.504,99.976 C695.928,100.408 694.776,100.624 693.048,100.768 C691.968,100.768 690.6,100.624 689.016,100.336 L691.464,107.968 C696.792,107.896 700.608,106.888 702.768,105.016 C704.208,103.576 704.928,101.056 704.928,97.6 C704.568,92.704 702.192,86.944 697.728,80.248 C700.536,73.48 702.984,67.072 705.144,61.024 L705.144,55.12 L681.24,55.12 L681.24,119.56 L688.584,119.56 Z M732.792,68.152 L714.576,68.152 L714.576,62.104 L732.792,62.104 L732.792,68.152 Z M732.792,80.896 L714.576,80.896 L714.576,74.92 L732.792,74.92 L732.792,80.896 Z M741.648,118.84 L746.04,112.36 C741.576,109.912 737.76,106.672 734.52,102.568 C738.12,100.552 741.432,97.888 744.312,94.432 L739.56,89.608 C736.824,92.92 733.944,95.44 730.992,97.24 C729.84,95.224 728.76,92.992 727.824,90.544 L722.136,93.712 C726.168,105.088 732.72,113.512 741.648,118.84 Z M818.76,90.832 L824.664,85.504 C815.664,77.656 809.976,67.432 807.528,54.76 L790.608,54.76 L790.608,61.816 L801.768,61.816 C804.72,73.48 810.408,83.128 818.76,90.832 Z M764.76,91.12 C773.04,83.344 779.664,72.256 784.704,57.784 L777.72,54.976 C773.688,67.792 767.352,78.16 758.784,85.936 L764.76,91.12 Z M811.416,119.56 L818.472,116.392 C814.8,107.608 810.408,99.328 805.368,91.624 L798.6,93.928 C800.976,97.744 803.28,101.92 805.512,106.384 C796.296,107.824 786.864,108.832 777.144,109.48 C783.048,101.272 788.808,91.336 794.424,79.744 L787.008,77.152 C777.648,97.816 770.52,108.688 765.696,109.768 L766.992,117.112 C782.256,116.104 796.152,114.736 808.608,112.864 C809.544,115.024 810.48,117.256 811.416,119.56 Z M889.68,118.984 C895.152,118.984 897.888,116.104 897.888,110.344 L897.888,55.12 L842.448,55.12 L842.448,62.32 L890.4,62.32 L890.4,108.256 C890.4,110.704 889.608,112 888.024,112 L877.8,111.784 L879.744,118.984 L889.68,118.984 Z M884.424,76.144 L884.424,69.304 L838.416,69.304 L838.416,76.144 L884.424,76.144 Z M877.872,106.96 L877.872,83.056 L844.464,83.056 L844.464,106.96 L877.872,106.96 Z M870.672,100.336 L851.592,100.336 L851.592,89.68 L870.672,89.68 L870.672,100.336 Z" id="綠源園藝有限公司" fill="#1B1B1C" fill-rule="nonzero"></path>
        <path d="M303.156231,194.51274 C313.980084,194.51274 321.757065,187.566724 321.757065,176.316734 L321.757065,171.075262 L304.051116,171.075262 L304.051116,177.254233 L313.93747,177.254233 C313.767016,183.688886 309.249975,187.417576 303.198844,187.417576 C295.91192,187.417576 290.947436,181.941729 290.947436,172.055375 C290.947436,162.232941 295.954533,156.778401 302.985776,156.778401 C308.248555,156.778401 311.785484,159.590898 313.27696,164.214473 L321.39485,164.214473 C320.052521,155.64914 312.531222,149.683237 302.879242,149.683237 C291.458799,149.683237 283,158.078115 283,172.140602 C283,185.947407 291.139197,194.51274 303.156231,194.51274 Z M336.028401,193.916149 L336.028401,174.676111 C336.028401,170.542592 339.139193,167.623561 343.166178,167.623561 C344.423279,167.623561 345.382085,167.921856 346.21305,168.305378 L348.599412,161.913339 C347.448845,161.188908 345.978676,160.720158 344.210211,160.720158 C340.438908,160.720158 337.328116,162.850838 336.134935,166.643448 L335.794026,166.643448 L335.794026,161.188908 L328.31534,161.188908 L328.31534,193.916149 L336.028401,193.916149 Z M365.51277,194.555353 C373.140603,194.555353 378.382075,190.826664 379.745711,185.137749 L372.544013,184.32809 C371.49998,187.097974 368.943164,188.546836 365.619304,188.546836 C360.633513,188.546836 357.330959,185.265589 357.267039,179.661902 L380.065312,179.661902 L380.065312,177.296847 C380.065312,165.812483 373.16191,160.762772 365.10794,160.762772 C355.732949,160.762772 349.617898,167.644868 349.617898,177.74429 C349.617898,188.014166 355.647722,194.555353 365.51277,194.555353 Z M372.671854,174.463043 L357.288346,174.463043 C357.52272,170.286911 360.612206,166.771289 365.214474,166.771289 C369.646288,166.771289 372.62924,170.009922 372.671854,174.463043 Z M400.323849,194.555353 C407.951683,194.555353 413.193155,190.826664 414.55679,185.137749 L407.355092,184.32809 C406.311059,187.097974 403.754244,188.546836 400.430383,188.546836 C395.444592,188.546836 392.142039,185.265589 392.078118,179.661902 L414.876392,179.661902 L414.876392,177.296847 C414.876392,165.812483 407.97299,160.762772 399.91902,160.762772 C390.544029,160.762772 384.428978,167.644868 384.428978,177.74429 C384.428978,188.014166 390.458802,194.555353 400.323849,194.555353 Z M407.482933,174.463043 L392.099425,174.463043 C392.3338,170.286911 395.423286,166.771289 400.025554,166.771289 C404.457368,166.771289 407.44032,170.009922 407.482933,174.463043 Z M428.359367,193.916149 L428.359367,174.740031 C428.359367,170.009922 431.214478,167.282652 435.284076,167.282652 C439.268447,167.282652 441.654809,169.903388 441.654809,174.271282 L441.654809,193.916149 L449.367945,193.916149 L449.367945,173.078101 C449.389176,165.237199 444.914749,160.762772 438.160494,160.762772 C433.25993,160.762772 429.893456,163.10652 428.401981,166.749982 L428.018458,166.749982 L428.018458,161.188908 L420.646306,161.188908 L420.646306,193.916149 L428.359367,193.916149 Z M486.326689,194.57666 C496.788327,194.57666 502.860764,189.356495 502.882071,181.664741 C502.860764,174.100827 496.617872,170.649126 490.055378,169.09373 L485.964473,168.071004 C482.384931,167.218732 478.507094,165.705949 478.549708,162.062487 C478.571014,158.78124 481.511353,156.373572 486.45453,156.373572 C491.163332,156.373572 494.274124,158.568172 494.678954,162.275555 L502.28548,162.275555 C502.136333,154.903403 495.850827,149.683237 486.561064,149.683237 C477.399141,149.683237 470.517045,154.839482 470.538352,162.552543 C470.538352,168.816742 474.991472,172.41759 482.171863,174.271282 L487.136347,175.54969 C491.845149,176.74287 494.955942,178.213039 494.977249,181.60082 C494.955942,185.32951 491.419014,187.822405 486.262768,187.822405 C481.319591,187.822405 477.484368,185.606498 477.164766,181.025537 L469.387785,181.025537 C469.707387,189.697403 476.163346,194.57666 486.326689,194.57666 Z M523.097997,194.555353 C532.686056,194.555353 538.7798,187.801098 538.7798,177.680369 C538.7798,167.538334 532.686056,160.762772 523.097997,160.762772 C513.509938,160.762772 507.416194,167.538334 507.416194,177.680369 C507.416194,187.801098 513.509938,194.555353 523.097997,194.555353 Z M523.140611,188.376382 C517.835218,188.376382 515.235789,183.646273 515.235789,177.659063 C515.235789,171.671852 517.835218,166.877823 523.140611,166.877823 C528.360776,166.877823 530.960205,171.671852 530.960205,177.659063 C530.960205,183.646273 528.360776,188.376382 523.140611,188.376382 Z M555.458796,194.342285 C560.359359,194.342285 563.81106,191.764163 565.302536,188.099394 L565.643445,188.099394 L565.643445,193.916149 L573.122131,193.916149 L573.122131,161.188908 L565.40907,161.188908 L565.40907,180.151958 C565.40907,185.137749 561.850835,187.609337 558.441747,187.609337 C554.734365,187.609337 552.262776,184.988601 552.262776,180.833776 L552.262776,161.188908 L544.549715,161.188908 L544.549715,182.026956 C544.549715,189.889165 549.024143,194.342285 555.458796,194.342285 Z M588.011356,193.916149 L588.011356,174.676111 C588.011356,170.542592 591.122148,167.623561 595.149133,167.623561 C596.406234,167.623561 597.36504,167.921856 598.196005,168.305378 L600.582366,161.913339 C599.431799,161.188908 597.96163,160.720158 596.193166,160.720158 C592.421863,160.720158 589.31107,162.850838 588.11789,166.643448 L587.776981,166.643448 L587.776981,161.188908 L580.298295,161.188908 L580.298295,193.916149 L588.011356,193.916149 Z M617.282656,194.555353 C625.50708,194.555353 630.748552,189.676097 631.302529,182.730081 L623.930377,182.730081 C623.269866,186.245702 620.734357,188.269848 617.346577,188.269848 C612.53124,188.269848 609.420448,184.242863 609.420448,177.552529 C609.420448,170.947421 612.595161,166.984357 617.346577,166.984357 C621.053959,166.984357 623.333787,169.370718 623.930377,172.524124 L631.302529,172.524124 C630.769859,165.428961 625.230092,160.762772 617.240043,160.762772 C607.651983,160.762772 601.600853,167.687481 601.600853,177.680369 C601.600853,187.58803 607.502836,194.555353 617.282656,194.555353 Z M651.39061,194.555353 C659.018444,194.555353 664.259916,190.826664 665.623551,185.137749 L658.421854,184.32809 C657.377821,187.097974 654.821005,188.546836 651.497144,188.546836 C646.511354,188.546836 643.2088,185.265589 643.14488,179.661902 L665.943153,179.661902 L665.943153,177.296847 C665.943153,165.812483 659.039751,160.762772 650.985781,160.762772 C641.61079,160.762772 635.495739,167.644868 635.495739,177.74429 C635.495739,188.014166 641.525563,194.555353 651.39061,194.555353 Z M658.549695,174.463043 L643.166186,174.463043 C643.400561,170.286911 646.490047,166.771289 651.092315,166.771289 C655.524129,166.771289 658.507081,170.009922 658.549695,174.463043 Z M705.245719,194.51274 C716.069573,194.51274 723.846554,187.566724 723.846554,176.316734 L723.846554,171.075262 L706.140605,171.075262 L706.140605,177.254233 L716.026959,177.254233 C715.856505,183.688886 711.339464,187.417576 705.288333,187.417576 C698.001408,187.417576 693.036924,181.941729 693.036924,172.055375 C693.036924,162.232941 698.044022,156.778401 705.075265,156.778401 C710.338044,156.778401 713.874973,159.590898 715.366448,164.214473 L723.484338,164.214473 C722.14201,155.64914 714.62071,149.683237 704.968731,149.683237 C693.548287,149.683237 685.089489,158.078115 685.089489,172.140602 C685.089489,185.947407 693.228685,194.51274 705.245719,194.51274 Z M739.822433,194.57666 C744.957372,194.57666 748.025551,192.168992 749.431799,189.420415 L749.687481,189.420415 L749.687481,193.916149 L757.102247,193.916149 L757.102247,172.012761 C757.102247,163.362201 750.049696,160.762772 743.806805,160.762772 C736.924709,160.762772 731.640623,163.830951 729.936079,169.796854 L737.137777,170.819581 C737.904822,168.582367 740.078115,166.664755 743.849418,166.664755 C747.42896,166.664755 749.389186,168.49714 749.389186,171.714466 L749.389186,171.842307 C749.389186,174.058214 747.066745,174.164748 741.292603,174.782645 C734.943177,175.464462 728.870739,177.360767 728.870739,184.73292 C728.870739,191.167572 733.579542,194.57666 739.822433,194.57666 Z M741.825272,188.909052 C738.607946,188.909052 736.306812,187.438883 736.306812,184.605079 C736.306812,181.643434 738.884934,180.40764 742.336636,179.917583 C744.360781,179.640595 748.409073,179.129232 749.410493,178.319573 L749.410493,182.176104 C749.410493,185.819573 746.470154,188.909052 741.825272,188.909052 Z M771.842321,193.916149 L771.842321,174.676111 C771.842321,170.542592 774.953114,167.623561 778.980099,167.623561 C780.2372,167.623561 781.196006,167.921856 782.026971,168.305378 L784.413332,161.913339 C783.262765,161.188908 781.792596,160.720158 780.024132,160.720158 C776.252829,160.720158 773.142036,162.850838 771.948855,166.643448 L771.607947,166.643448 L771.607947,161.188908 L764.129261,161.188908 L764.129261,193.916149 L771.842321,193.916149 Z M798.982942,194.491433 C804.607937,194.491433 807.143446,191.146266 808.357933,188.759904 L808.805376,188.759904 L808.805376,193.916149 L816.390596,193.916149 L816.390596,150.279827 L808.677535,150.279827 L808.677535,166.600835 L808.357933,166.600835 C807.186059,164.23578 804.778391,160.762772 799.004249,160.762772 C791.440336,160.762772 785.495739,166.686062 785.495739,177.595142 C785.495739,188.376382 791.269881,194.491433 798.982942,194.491433 Z M801.134929,188.163314 C796.042604,188.163314 793.357948,183.688886 793.357948,177.552529 C793.357948,171.458784 795.999991,167.090891 801.134929,167.090891 C806.099413,167.090891 808.826683,171.203103 808.826683,177.552529 C808.826683,183.901954 806.056799,188.163314 801.134929,188.163314 Z M838.396292,194.555353 C846.024126,194.555353 851.265598,190.826664 852.629233,185.137749 L845.427536,184.32809 C844.383502,187.097974 841.826687,188.546836 838.502826,188.546836 C833.517036,188.546836 830.214482,185.265589 830.150561,179.661902 L852.948835,179.661902 L852.948835,177.296847 C852.948835,165.812483 846.045433,160.762772 837.991463,160.762772 C828.616472,160.762772 822.501421,167.644868 822.501421,177.74429 C822.501421,188.014166 828.531245,194.555353 838.396292,194.555353 Z M845.555376,174.463043 L830.171868,174.463043 C830.406243,170.286911 833.495729,166.771289 838.097997,166.771289 C842.529811,166.771289 845.512763,170.009922 845.555376,174.463043 Z M866.43181,193.916149 L866.43181,174.740031 C866.43181,170.009922 869.286921,167.282652 873.356519,167.282652 C877.340891,167.282652 879.727252,169.903388 879.727252,174.271282 L879.727252,193.916149 L887.440389,193.916149 L887.440389,173.078101 C887.46162,165.237199 882.987192,160.762772 876.232937,160.762772 C871.332374,160.762772 867.9659,163.10652 866.474424,166.749982 L866.090901,166.749982 L866.090901,161.188908 L858.718749,161.188908 L858.718749,193.916149 L866.43181,193.916149 Z M898.430393,156.671867 C900.880675,156.671867 902.883514,154.711641 902.883514,152.32528 C902.883514,149.938919 900.880675,148 898.430393,148 C895.958805,148 893.955966,149.938919 893.955966,152.32528 C893.955966,154.711641 895.958805,156.671867 898.430393,156.671867 Z M902.265617,193.916149 L902.265617,161.188908 L894.552556,161.188908 L894.552556,193.916149 L902.265617,193.916149 Z M917.154821,193.916149 L917.154821,174.740031 C917.154821,170.009922 920.009932,167.282652 924.079531,167.282652 C928.063902,167.282652 930.450263,169.903388 930.450263,174.271282 L930.450263,193.916149 L938.1634,193.916149 L938.1634,173.078101 C938.184631,165.237199 933.710203,160.762772 926.955948,160.762772 C922.055385,160.762772 918.688911,163.10652 917.197435,166.749982 L916.813913,166.749982 L916.813913,161.188908 L909.441761,161.188908 L909.441761,193.916149 L917.154821,193.916149 Z M959.508508,206.742842 C968.35083,206.742842 974.87071,202.69455 974.87071,194.448819 L974.87071,161.188908 L967.264183,161.188908 L967.264183,166.600835 L966.838047,166.600835 C965.666173,164.23578 963.215891,160.762772 957.441749,160.762772 C949.877836,160.762772 943.933239,166.686062 943.933239,177.445995 C943.933239,188.1207 949.877836,193.4474 957.420442,193.4474 C963.02413,193.4474 965.644866,190.443141 966.838047,188.035473 L967.221569,188.035473 L967.221569,194.235751 C967.221569,198.923247 964.02555,200.904779 959.636349,200.904779 C954.991467,200.904779 952.946015,198.710179 952.008516,196.920408 L945.062499,198.603645 C946.468748,203.056766 951.17755,206.742842 959.508508,206.742842 Z M959.572429,187.396269 C954.480104,187.396269 951.795448,183.433205 951.795448,177.403381 C951.795448,171.458784 954.437491,167.090891 959.572429,167.090891 C964.536913,167.090891 967.264183,171.203103 967.264183,177.403381 C967.264183,183.646273 964.494299,187.396269 959.572429,187.396269 Z M1002.13494,193.916149 L1005.73579,183.156216 L1022.14202,183.156216 L1025.76418,193.916149 L1034.20167,193.916149 L1018.81816,150.279827 L1009.05965,150.279827 L993.697445,193.916149 L1002.13494,193.916149 Z M1020.01134,176.806791 L1007.86647,176.806791 L1013.76845,159.228682 L1014.10936,159.228682 L1020.01134,176.806791 Z M1046.5767,193.916149 L1046.5767,174.676111 C1046.5767,170.542592 1049.68749,167.623561 1053.71447,167.623561 C1054.97157,167.623561 1055.93038,167.921856 1056.76135,168.305378 L1059.14771,161.913339 C1057.99714,161.188908 1056.52697,160.720158 1054.75851,160.720158 C1050.9872,160.720158 1047.87641,162.850838 1046.68323,166.643448 L1046.34232,166.643448 L1046.34232,161.188908 L1038.86364,161.188908 L1038.86364,193.916149 L1046.5767,193.916149 Z M1077.38209,194.299672 C1079.57669,194.257058 1081.08947,193.830922 1081.92044,193.532627 L1080.62072,187.52411 C1080.19459,187.609337 1079.32101,187.822405 1078.3622,187.822405 C1076.42328,187.822405 1074.86789,187.140588 1074.86789,184.029795 L1074.86789,167.154811 L1081.32385,167.154811 L1081.32385,161.188908 L1074.86789,161.188908 L1074.86789,153.348006 L1067.15483,153.348006 L1067.15483,161.188908 L1062.50994,161.188908 L1062.50994,167.154811 L1067.15483,167.154811 L1067.15483,185.286896 C1067.11221,191.465868 1071.58664,194.491433 1077.38209,194.299672 Z" id="GreenSourceGardeningArt" fill="#1B1B1C" fill-rule="nonzero"></path>
    </g>
</svg>