<?xml version="1.0" encoding="UTF-8"?>
<svg width="475px" height="334px" viewBox="0 0 475 334" version="1.1" xmlns="http://www.w3.org/2000/svg" xmlns:xlink="http://www.w3.org/1999/xlink">
    <title>Group 8</title>
    <g id="Page-1" stroke="none" stroke-width="1" fill="none" fill-rule="evenodd">
        <g id="Desktop" transform="translate(5.000000, -696.000000)" fill-rule="nonzero" stroke="#7AAA98" stroke-width="3">
            <g id="Group-8" transform="translate(0.000000, 699.000000)">
                <path d="M93.0064719,185.655558 C65.4690479,186.58189 36.3668572,193.554696 -9.80548975e-13,223.130316 C52.3635008,220.353915 109.050849,229.097962 135.5548,242.304422 C162.05875,255.510884 193.159027,271.107447 226.133333,324.266304 C221.995945,276.1769 172.204079,182.99143 93.0064719,185.655558 Z" id="Path-Copy-2"></path>
                <path d="M331.939806,185.655558 C304.402381,186.58189 275.30019,193.554696 238.933333,223.130316 C291.296834,220.353915 347.984181,229.097962 374.488132,242.304422 C400.992083,255.510884 432.092361,271.107447 465.066667,324.266304 C460.929278,276.1769 411.137412,182.99143 331.939806,185.655558 Z" id="Path-Copy-3" transform="translate(352.000000, 254.932970) scale(-1, 1) translate(-352.000000, -254.932970) "></path>
                <path d="M232.534287,3.12638804e-12 C246.562167,18.3112644 256,52.5351603 256,91.7329702 C256,130.930752 246.56218,165.154626 232.534317,183.4659 C218.504486,165.154626 209.066667,130.930752 209.066667,91.7329702 C209.066667,52.5459629 218.499298,18.3301284 232.520783,0.0151428267 L232.534287,3.12638804e-12 Z" id="Combined-Shape"></path>
                <path d="M324.181911,136.53297 C350.784495,136.53297 360.190965,139.123884 379.733333,145.74256 C345.840393,154.206973 310.816258,174.150892 296.368169,184.124763 C282.070116,193.995059 248.902784,223.266218 232.958502,283.945679 C232.846805,284.588281 232.728292,285.22823 232.604371,285.866304 C232.580794,285.773472 232.557178,285.68071 232.533519,285.588023 L232.462295,285.866304 L232.462295,285.866304 C232.338374,285.22823 232.219861,284.588281 232.106803,283.946502 C216.163883,223.266218 182.996551,193.995059 168.698499,184.124763 C154.250409,174.150892 119.226274,154.206973 85.3333333,145.74256 C104.875701,139.123884 114.282172,136.53297 140.884756,136.53297 C192.929483,136.53297 224.374886,181.405924 232.535727,235.52493 C240.69178,181.405924 272.137184,136.53297 324.181911,136.53297 Z" id="Combined-Shape"></path>
            </g>
        </g>
    </g>
</svg>